<!DOCTYPE svg PUBLIC "-//W3C//DTD SVG 1.1//EN" "http://www.w3.org/Graphics/SVG/1.1/DTD/svg11.dtd">

<!-- Uploaded to: SVG Repo, www.svgrepo.com, Transformed by: SVG Repo Mixer Tools -->
<svg fill="#000000" width="800px" height="800px" viewBox="-3.2 -3.2 38.40 38.40" version="1.1" xmlns="http://www.w3.org/2000/svg" transform="matrix(1, 0, 0, 1, 0, 0)rotate(0)">

<g id="SVGRepo_bgCarrier" stroke-width="0"/>

<g id="SVGRepo_tracerCarrier" stroke-linecap="round" stroke-linejoin="round" stroke="#CCCCCC" stroke-width="0.192"/>

<g id="SVGRepo_iconCarrier"> <title>decorate</title> <path d="M8 10l-4-4h8l-4 4zM24 26l4-4h-8l4 4zM20 6h-8l4 4 4-4zM28 6h-8l4 4 4-4zM16 26l4-4h-8l4 4zM8 18l4-4h-8l4 4zM16 18l4-4h-8l4 4zM24 18l4-4h-8l4 4zM8 26l4-4h-8l4 4z"/> </g>

</svg>