<svg version="1.1" id="Layer_1" xmlns="http://www.w3.org/2000/svg" xmlns:xlink="http://www.w3.org/1999/xlink" x="0px" y="0px"
	 width="100%" viewBox="0 0 512 512" enable-background="new 0 0 512 512" xml:space="preserve">
<path fill="#000000" opacity="1.000000" stroke="none" 
	d="
M300.328552,219.844604 
	C300.048096,225.594421 302.102051,230.820236 300.675262,236.912186 
	C297.711823,231.012634 299.004395,225.185867 297.806854,219.763947 
	C294.644073,205.444366 289.068359,192.785370 275.532349,185.277847 
	C266.868591,180.472672 251.590988,182.244019 243.854034,188.739349 
	C235.694794,195.589188 231.453705,209.396561 234.348694,219.112656 
	C236.192627,225.301163 240.566650,229.256088 245.727112,232.504456 
	C256.433075,239.243622 267.649292,245.196274 277.503479,253.239410 
	C286.561340,260.632599 293.098389,269.709595 295.236084,281.371857 
	C298.393494,298.597046 290.745850,314.345520 275.524872,324.486389 
	C251.959457,340.186707 214.624939,335.913422 195.603043,307.651123 
	C188.593628,297.236664 184.652130,285.724609 181.733765,273.487427 
	C185.830780,271.137207 189.950409,272.254669 193.945663,272.825012 
	C196.300903,273.161224 195.997391,275.462036 196.358795,277.220551 
	C199.337692,291.714935 203.567902,305.674133 214.169556,316.711884 
	C220.913696,323.733429 228.925232,328.527191 238.636459,330.330109 
	C252.733063,332.947235 267.083008,326.289337 275.708313,312.979156 
	C283.708344,300.633850 283.797577,285.187195 275.773895,273.923218 
	C271.453583,267.858215 265.591705,263.443756 259.423218,259.411652 
	C251.338394,254.126907 243.157425,248.979904 235.218964,243.483139 
	C227.043961,237.822617 220.902313,230.732269 219.380814,220.294159 
	C217.165985,205.099411 225.746506,189.559647 239.957809,184.030182 
	C245.416656,181.906219 251.065598,180.561401 257.005585,180.654678 
	C269.165497,180.845657 281.328064,180.882248 293.486938,181.117355 
	C300.206482,181.247269 300.310547,181.471313 300.318085,188.374451 
	C300.329346,198.704208 300.322296,209.033997 300.328552,219.844604 
z"/>
</svg>