<?xml version="1.0" encoding="UTF-8" standalone="no" ?>
<!DOCTYPE svg PUBLIC "-//W3C//DTD SVG 1.1//EN" "http://www.w3.org/Graphics/SVG/1.1/DTD/svg11.dtd">
<svg xmlns="http://www.w3.org/2000/svg" xmlns:xlink="http://www.w3.org/1999/xlink" version="1.1" width="1080" height="1080" viewBox="0 0 1080 1080" xml:space="preserve">
<desc>Created with Fabric.js 5.2.4</desc>
<defs>
</defs>
<rect x="0" y="0" width="100%" height="100%" fill="transparent"></rect>
<g transform="matrix(1 0 0 1 540 540)" id="55d8841f-8081-48c8-91da-26d944565ebe"  >
<rect style="stroke: none; stroke-width: 1; stroke-dasharray: none; stroke-linecap: butt; stroke-dashoffset: 0; stroke-linejoin: miter; stroke-miterlimit: 4; fill: rgb(255,255,255); fill-rule: nonzero; opacity: 1; visibility: hidden;" vector-effect="non-scaling-stroke"  x="-540" y="-540" rx="0" ry="0" width="1080" height="1080" />
</g>
<g transform="matrix(1 0 0 1 540 540)" id="7dcd6922-0487-48eb-8836-1c05df3c178f"  >
</g>
<g transform="matrix(4.61 0 0 4.61 566.2 524.52)" id="668a1a3d-18cc-42ef-ba62-a7b767cd71b3"  >
<path style="stroke: rgb(0,0,0); stroke-width: 0; stroke-dasharray: none; stroke-linecap: butt; stroke-dashoffset: 0; stroke-linejoin: miter; stroke-miterlimit: 4; fill: rgb(237,237,237); fill-rule: nonzero; opacity: 1;" vector-effect="non-scaling-stroke"  transform=" translate(-241.46, -257.08)" d="M 300.328552 219.844604 C 300.048096 225.594421 302.102051 230.820236 300.675262 236.912186 C 297.711823 231.012634 299.004395 225.185867 297.806854 219.763947 C 294.644073 205.444366 289.068359 192.78537 275.532349 185.277847 C 266.868591 180.472672 251.590988 182.244019 243.854034 188.739349 C 235.694794 195.589188 231.453705 209.396561 234.348694 219.112656 C 236.192627 225.301163 240.56665 229.256088 245.727112 232.504456 C 256.433075 239.243622 267.649292 245.196274 277.503479 253.23941 C 286.56134 260.632599 293.098389 269.709595 295.236084 281.371857 C 298.393494 298.597046 290.74585 314.34552 275.524872 324.486389 C 251.959457 340.186707 214.624939 335.913422 195.603043 307.651123 C 188.593628 297.236664 184.65213 285.724609 181.733765 273.487427 C 185.83078 271.137207 189.950409 272.254669 193.945663 272.825012 C 196.300903 273.161224 195.997391 275.462036 196.358795 277.220551 C 199.337692 291.714935 203.567902 305.674133 214.169556 316.711884 C 220.913696 323.733429 228.925232 328.527191 238.636459 330.330109 C 252.733063 332.947235 267.083008 326.289337 275.708313 312.979156 C 283.708344 300.63385 283.797577 285.187195 275.773895 273.923218 C 271.453583 267.858215 265.591705 263.443756 259.423218 259.411652 C 251.338394 254.126907 243.157425 248.979904 235.218964 243.483139 C 227.043961 237.822617 220.902313 230.732269 219.380814 220.294159 C 217.165985 205.099411 225.746506 189.559647 239.957809 184.030182 C 245.416656 181.906219 251.065598 180.561401 257.005585 180.654678 C 269.165497 180.845657 281.328064 180.882248 293.486938 181.117355 C 300.206482 181.247269 300.310547 181.471313 300.318085 188.374451 C 300.329346 198.704208 300.322296 209.033997 300.328552 219.844604 z" stroke-linecap="round" />
</g>
</svg>