<svg id="e9pW6M7gfS11" xmlns="http://www.w3.org/2000/svg" xmlns:xlink="http://www.w3.org/1999/xlink" viewBox="0 0 320 512" shape-rendering="geometricPrecision" text-rendering="geometricPrecision">
<path d="M99.1,105.4C79,114,68.2,127.2,65.2,144.8c-2.4,14.1-.7,23.2,2,29.4c2.8,6.3,7.9,12.4,16.7,18.6c19.2,13.4,48.3,22.1,84.9,32.5c1,.3,1.9.6,2.9.8c32.7,9.3,72,20.6,100.9,40.7c15.7,10.9,29.9,25.5,38.6,45.1c8.8,19.8,10.8,42,6.6,66.3-7.3,42.5-35.3,71.7-71.8,87.3-35.4,15.2-79.1,17.9-123.7,10.9h-.2c-24-3.9-62.7-17.1-87.6-25.6-4.8-1.7-9.2-3.1-12.8-4.3-16.6-5.7-25.6-23.8-20.1-40.6s23.7-25.8,40.5-20.3C47,387.2,52.3,389,58,391c25.4,8.6,56.4,19.2,74.4,22.1c36.8,5.7,67.5,2.5,88.5-6.5c20.1-8.6,30.8-21.8,33.9-39.4c2.4-14.1.7-23.2-2-29.4-2.8-6.3-7.9-12.4-16.7-18.6-19.2-13.4-48.3-22.1-84.9-32.5-1-.3-1.9-.6-2.9-.8-32.7-9.3-72-20.6-100.9-40.7-15.7-10.9-29.9-25.5-38.6-45.1-8.78627-19.7691-10.79374-41.93072-6.61962-66.18626L2.1,133.9C9.4,91.4,37.4,62.2,73.9,46.6C109.3,31.4,153,28.7,197.6,35.7c13,2,52.4,9.6,66.6,13.4c17.1,4.5,45.638528,27.601602,41.138528,44.701602s-40.538528,21.698398-57.638528,17.198398c-11.2-3-48.1-10.2-60.1-12-36.9-5.8-67.5-2.5-88.6,6.5l.1-.1Z" transform="translate(.000001 0)" fill="#0b0b0b" stroke="#050505"/>
<path d="M0.001441,27.09063c15.078385-22.983258,50.031195-17.05145,69.72025,0l90.223884,288.932801L248.522203,27.822067C282.869862,1.15678,309.812964,12.701262,320,27.822066L159.999997,489.865072L0.001441,27.09063Z" transform="translate(.000003 0.000005)" fill="#050505" stroke="#000" stroke-width="1.024"/></svg>
